<svg width="21" height="17" viewBox="0 0 21 17" fill="none" xmlns="http://www.w3.org/2000/svg">
<path d="M10.0013 16.9995C9.86973 17.0003 9.73927 16.9751 9.61743 16.9253C9.49559 16.8755 9.38478 16.8022 9.29134 16.7095L1.52134 8.92953C0.546698 7.94471 0 6.6151 0 5.22953C0 3.84396 0.546698 2.51435 1.52134 1.52953C2.5036 0.550039 3.83417 0 5.22134 0C6.60851 0 7.93908 0.550039 8.92134 1.52953L10.0013 2.60953L11.0813 1.52953C12.0636 0.550039 13.3942 0 14.7813 0C16.1685 0 17.4991 0.550039 18.4813 1.52953C19.456 2.51435 20.0027 3.84396 20.0027 5.22953C20.0027 6.6151 19.456 7.94471 18.4813 8.92953L10.7113 16.7095C10.6179 16.8022 10.5071 16.8755 10.3852 16.9253C10.2634 16.9751 10.1329 17.0003 10.0013 16.9995ZM5.22134 1.99953C4.79801 1.99761 4.37852 2.07971 3.98715 2.24106C3.59577 2.40242 3.24031 2.63982 2.94134 2.93953C2.3374 3.54665 1.99837 4.36818 1.99837 5.22453C1.99837 6.08088 2.3374 6.90241 2.94134 7.50953L10.0013 14.5795L17.0613 7.50953C17.6653 6.90241 18.0043 6.08088 18.0043 5.22453C18.0043 4.36818 17.6653 3.54665 17.0613 2.93953C16.445 2.35724 15.6292 2.03282 14.7813 2.03282C13.9334 2.03282 13.1177 2.35724 12.5013 2.93953L10.7113 4.73953C10.6184 4.83326 10.5078 4.90765 10.3859 4.95842C10.2641 5.00919 10.1333 5.03533 10.0013 5.03533C9.86933 5.03533 9.73862 5.00919 9.61676 4.95842C9.4949 4.90765 9.3843 4.83326 9.29134 4.73953L7.50134 2.93953C7.20237 2.63982 6.8469 2.40242 6.45553 2.24106C6.06416 2.07971 5.64466 1.99761 5.22134 1.99953Z" fill="black"/>
</svg>
