<svg width="20" height="20" viewBox="0 0 20 20" fill="none" xmlns="http://www.w3.org/2000/svg">
<path d="M19.9878 1.01131C19.9773 0.919449 19.9572 0.828945 19.9277 0.741314V0.651314C19.8798 0.540022 19.812 0.43837 19.7277 0.351314C19.6429 0.271579 19.5447 0.207279 19.4378 0.161314H19.3478C19.2556 0.0909242 19.1501 0.0399013 19.0378 0.011314H18.9878C18.8883 -0.00377133 18.7872 -0.00377133 18.6878 0.011314L0.68775 6.01131C0.487682 6.07707 0.313481 6.20432 0.189985 6.37491C0.066488 6.54549 0 6.75072 0 6.96131C0 7.17191 0.066488 7.37713 0.189985 7.54772C0.313481 7.71831 0.487682 7.84555 0.68775 7.91131L9.21775 10.7513L12.0577 19.2813C12.1235 19.4814 12.2508 19.6556 12.4213 19.7791C12.5919 19.9026 12.7972 19.9691 13.0078 19.9691C13.2183 19.9691 13.4236 19.9026 13.5942 19.7791C13.7647 19.6556 13.892 19.4814 13.9578 19.2813L19.9577 1.28131C19.98 1.1931 19.9901 1.10226 19.9878 1.01131ZM15.2877 3.30131L9.71775 8.87131L4.14775 7.01131L15.2877 3.30131ZM12.9878 15.8513L11.1278 10.2813L16.6978 4.71131L12.9878 15.8513Z" fill="black"/>
</svg>
